<svg xmlns="http://www.w3.org/2000/svg" viewBox="0 0 2000 1333.33"><defs><style>.cls-1{isolation:isolate;}.cls-2{fill:#8f8fef;}.cls-3,.cls-7{fill:#270f66;}.cls-4{fill:#60d8d2;}.cls-5{fill:#eeeff2;}.cls-6{fill:#ffca8a;}.cls-7{mix-blend-mode:soft-light;}.cls-8{font-size:881.23px;font-family:CenturyGothic-Bold, Century Gothic;font-weight:700;letter-spacing:-0.03em;}.cls-11,.cls-8{fill:#ff6679;}.cls-9{fill:#ffa766;}.cls-10{fill:#f7f1e6;}.cls-12{fill:#66b6ff;}</style></defs><title>Mesa de trabajo 1</title><g class="cls-1"><g id="OBJECTS"><path class="cls-2" d="M135.9,655.92a60.22,60.22,0,1,0,30,79.71A60.23,60.23,0,0,0,135.9,655.92Z"/><path class="cls-3" d="M726.81,226.65c-2.7-14.91-21.19-23.31-34.52-24.55s-30.69,4.09-39.49,12.82c-6,6-10.21,14-18.61,17.2-7.41,2.84-16.55,1.21-23.5,4.8-16.68,8.61-3.77,35-18.73,45.67-5.41,3.87-13.6,4.77-17.48,9.83-5.33,6.94,1,16.31-.76,24.49C570.88,329.8,549.38,335,547.49,348c-1.73,12,13.89,19.81,20.3,30.51,3,4.93,4,10.7,7.72,15.21,5,6,13.77,8.68,22.11,10.49,7.19,1.56,14.63,2.78,22,2,25.59-2.6,42.63-27.5,68.31-29.35,11.22-.81,22.53,3,33.64,1.43,15.11-2.2,26.72-15.77,24.73-28.89-1.07-7-5.47-13.7-4.77-20.76,1-9.61,11-17.14,12.1-26.74C755,290,738,277.8,739.22,265.79c.73-7.26,4.09-13.6,5.89-20.73,3.57-14.13-7.05-20.92-21.54-18.88"/><path class="cls-2" d="M708.9,492.82l24,106.33S613.17,606.22,552.7,546c0,0-44.06-237.6,97.46-224.47C759.23,331.63,759,390.43,708.9,492.82Z"/><path class="cls-3" d="M798,1150.41l-35.63-2.12-2.06,54,16.22-.39-.89-6.1,21.25,7,85.87.87s-19-16.51-45.86-22.87a59.82,59.82,0,0,1-38.9-30.35Z"/><path class="cls-3" d="M598,1147.21l-29.23-2.16-9.35,55.28,16.6-.41,2.72-6.24,25.38,7.13,80.66.89s-19.58-17-47.32-23.5a60.22,60.22,0,0,1-39.29-30.66Z"/><path class="cls-4" d="M720.92,540.08S628.54,588.16,553,545.39c0,0-29.76,69.78-4.58,166.57s57.77,266.94,5.12,442.52c0,0,39.87,20.63,75.54,8.26,0,0,79.6-187.41,75-309,0,0,64.1,110.3,36.63,303.89,0,0,41.21,15.75,77.84,2.25,0,0,27.47-90,29.76-186.84s-20.61-204.84-55-274.62S729.35,561,720.92,540.08Z"/><path class="cls-5" d="M569.51,558.37c-9,41.34-7.75,83.89-2.68,125.65,5.24,43.12,14.24,85.66,20.59,128.61,5.08,34.41,8.63,69.16,10.5,103.89a799.63,799.63,0,0,1-1.08,105.67,819.28,819.28,0,0,1-19.17,121.89q-1.89,8.1-3.92,16.17a.32.32,0,0,0,.62.17A845.57,845.57,0,0,0,596.08,1038a784,784,0,0,0,3.14-107.38c-1.26-33-4.37-65.87-8.49-98.6-5.44-43.24-14.46-85.91-20.71-129-6.19-42.68-9.64-86.33-2.79-129.15q1.23-7.7,2.91-15.31c.08-.41-.54-.58-.63-.18Z"/><path class="cls-3" d="M749,1050.06s20-223.15-74.1-371.49c0,0,27.37,65.64,30.71,178.53,0,0,6.82,16.84,14,34.13C743.62,949,749,1050.06,749,1050.06Z"/><path class="cls-5" d="M673.25,676.72c3.77,9.95,7,20.08,10,30.29,3.42,11.75,6.42,23.61,9.09,35.55q4.23,19,7.24,38.2c2,12.74,3.53,25.56,4.46,38.42a293.41,293.41,0,0,1,.63,35.21q-.1,2-.24,4c0,.41.62.41.65,0a273,273,0,0,0-.1-34.8c-.76-12.66-2.16-25.28-4-37.82q-2.82-19.35-7-38.48-3.91-18.28-9-36.31c-2.95-10.48-6.2-20.88-9.94-31.11-.41-1.11-.82-2.23-1.24-3.34-.15-.38-.77-.22-.63.17Z"/><path class="cls-5" d="M617.44,562.52a56.89,56.89,0,0,1-7.38,8.86,60.68,60.68,0,0,1-9,7.28,62.94,62.94,0,0,1-10.24,5.48,61.54,61.54,0,0,1-11.09,3.49,59.19,59.19,0,0,1-11.57,1.3q-.72,0-1.44,0a.33.33,0,0,0,0,.65,59.83,59.83,0,0,0,11.72-1,61.19,61.19,0,0,0,11.31-3.27,63.64,63.64,0,0,0,10.51-5.33,61.78,61.78,0,0,0,9.23-7.11,58.18,58.18,0,0,0,7.7-8.81c.28-.39.55-.78.81-1.18s-.32-.67-.55-.32Z"/><path class="cls-5" d="M633.07,565.21a66.13,66.13,0,0,1-21.17,23.95,73,73,0,0,1-13.69,7.4,82.33,82.33,0,0,1-15,4.5,89.59,89.59,0,0,1-15.58,1.69l-1.95,0a.32.32,0,0,0,0,.64A90.85,90.85,0,0,0,581.51,602a82.62,82.62,0,0,0,15.21-4.2,74.1,74.1,0,0,0,14-7.1,68.24,68.24,0,0,0,12.17-10.12,67.35,67.35,0,0,0,9.76-13.24c.34-.61.68-1.23,1-1.85.19-.36-.36-.69-.56-.32Z"/><path class="cls-5" d="M546.38,570.08a19,19,0,0,0,9.33,3.77c.41,0,.41-.59,0-.64a18.32,18.32,0,0,1-9-3.69c-.33-.25-.65.31-.33.56Z"/><path class="cls-5" d="M552.7,584.16a18.37,18.37,0,0,1-9.79-3.09c-.35-.23-.67.33-.33.56a19.11,19.11,0,0,0,10.12,3.18c.41,0,.41-.64,0-.65Z"/><path class="cls-5" d="M673.34,558.45q1.17,7.13,1.86,14.32t.9,14.35q.21,7.2,0,14.39t-1,14.34q-.74,7.2-1.94,14.32c-.1.58-.2,1.17-.31,1.76-.07.41.55.58.62.17q1.27-7.12,2.07-14.32t1.11-14.41q.32-7.26.16-14.53T676,574.41q-.64-7.21-1.75-14.36c-.09-.59-.19-1.18-.28-1.77-.07-.41-.69-.24-.63.17Z"/><path class="cls-5" d="M727.94,558.67a24.75,24.75,0,0,1-17.54-5.85,25.22,25.22,0,0,1-3.69-3.83c-.26-.32-.71.14-.46.46a26.05,26.05,0,0,0,16.26,9.63,23,23,0,0,0,5.43.23c.42,0,.42-.67,0-.64Z"/><path class="cls-5" d="M734.15,570.39a42.33,42.33,0,0,1-18-1.77,43.7,43.7,0,0,1-15.72-8.94,40,40,0,0,1-6.63-7.6c-.23-.35-.79,0-.55.32a41.86,41.86,0,0,0,13.22,12.53A44.93,44.93,0,0,0,723.79,571a41.29,41.29,0,0,0,10.36,0c.41,0,.41-.69,0-.64Z"/><path class="cls-6" d="M690.14,328.44l.38-10.72s25.83,8.39,28.4-14.58c4.48-40,8-50.61-7.1-64.59s-59-.84-60.09,33l-2.8,49s5.61,5.84,17.9,8.42A51.61,51.61,0,0,0,690.14,328.44Z"/><path class="cls-3" d="M692.86,274.44c-.32,1.58,0,3,.72,3.12s1.56-1,1.88-2.62,0-3-.73-3.13S693.18,272.85,692.86,274.44Z"/><path class="cls-3" d="M713.35,278.27c-.31,1.59,0,3,.73,3.13s1.55-1,1.87-2.63,0-3-.72-3.12S713.67,276.69,713.35,278.27Z"/><path class="cls-3" d="M691.4,317.88s-13.35-3.53-21.43-14.37l20.17,25.63Z"/><path class="cls-7" d="M661.91,279.07a14.19,14.19,0,0,1,17.4-9.73,13.9,13.9,0,0,1,9.89,17.11,14.18,14.18,0,0,1-17.39,9.73A13.9,13.9,0,0,1,661.91,279.07Z"/><path class="cls-6" d="M714.29,289.69A13.9,13.9,0,0,1,721.5,281c-.7,6.23-1.61,13.45-2.58,22.1,0,.29-.11.51-.15.79A13.74,13.74,0,0,1,714.29,289.69Z"/><path class="cls-7" d="M714.29,289.69A13.9,13.9,0,0,1,721.5,281c-.7,6.23-1.61,13.45-2.58,22.1,0,.29-.11.51-.15.79A13.74,13.74,0,0,1,714.29,289.69Z"/><polygon class="cls-7" points="709.6 266.81 705.98 265.83 700.41 285.77 709.09 288.11 709.6 266.81"/><path class="cls-3" d="M693.79,261.66c-.1,1.09,1.41,2.11,3.35,2.27s3.6-.61,3.7-1.7-1.42-2.11-3.36-2.27S693.88,260.56,693.79,261.66Z"/><path class="cls-3" d="M714.21,265.1c-.61.92.22,2.52,1.86,3.57s3.46,1.16,4.07.24-.22-2.52-1.86-3.57S714.82,264.18,714.21,265.1Z"/><path class="cls-6" d="M638.4,273.68a12.42,12.42,0,0,1,15.24-8.52,12.15,12.15,0,0,1,8.67,15,12.43,12.43,0,0,1-15.24,8.53A12.18,12.18,0,0,1,638.4,273.68Z"/><path class="cls-3" d="M649,271.57a7,7,0,0,1,6,5.45,5.9,5.9,0,0,1,0,2.44c-.06.32.42.45.48.14a7.43,7.43,0,0,0-3.94-7.79,7,7,0,0,0-2.56-.74c-.32,0-.32.48,0,.5Z"/><path class="cls-3" d="M716.27,240.8c-1.84,6.42-8.9,10-15.6,11.11s-13.62.3-20.27,1.66-13.44,5.75-14.35,12.36c-.25,1.81-.08,3.77-1.08,5.3a5.14,5.14,0,0,1-5.37,1.88,9.05,9.05,0,0,1-4.89-3.33c-3.31-4.07-4.22-9.72-3.16-14.83a30.32,30.32,0,0,1,7.4-13.66c6.71-7.54,16.17-12.89,26.31-13.82s20.84,2.88,27.31,10.61"/><path class="cls-5" d="M706,337.73a58.75,58.75,0,0,1-16,7.15,60.42,60.42,0,0,1-17.54,2.18,57.77,57.77,0,0,1-16.74-2.92A59,59,0,0,1,641,336.87a57.29,57.29,0,0,1-12.08-11c-.44-.53-.87-1.08-1.3-1.63-.24-.32-.8,0-.55.33a58,58,0,0,0,11.78,11.54,59.74,59.74,0,0,0,14.62,7.9,58.2,58.2,0,0,0,16.69,3.56,60.43,60.43,0,0,0,17.78-1.53,59.52,59.52,0,0,0,16.53-6.63c.63-.37,1.25-.75,1.87-1.15.34-.22,0-.78-.33-.56Z"/><path class="cls-6" d="M710.66,354s54.92,48.09,117.4,41.21,81.3-77.17,83.46-102.86l57.07-7.23s7.4,57.9-27.76,115.57c-40.78,66.9-135.6,111.71-245.69,40.41Z"/><path class="cls-2" d="M674.76,430.06c69.58,47.53,120.11,46.5,120.11,46.5-6.29-45.7,13.65-81.4,13.65-81.4-45.57-14.88-54.1-40.49-99.62-59"/><path class="cls-5" d="M787.76,388.9A128.14,128.14,0,0,0,780,404a131.91,131.91,0,0,0-5.67,16,126.93,126.93,0,0,0-3.53,16.71,119.67,119.67,0,0,0-1.17,16.92A107.67,107.67,0,0,0,771,470.5c.11.7.23,1.39.35,2.09.07.41.7.24.62-.17a107,107,0,0,1-1.64-16.75,117,117,0,0,1,.88-16.84,124.24,124.24,0,0,1,3.24-16.67,129.17,129.17,0,0,1,5.4-16,127.4,127.4,0,0,1,7.39-15.07c.35-.61.7-1.22,1.07-1.83a.32.32,0,0,0-.56-.32Z"/><path class="cls-7" d="M922.21,416.78C913.94,413.6,900.41,420,892,431c-6.16,8.08-7,17.72-4.21,22.86A225.4,225.4,0,0,0,915,433.06c3.79-3.41,8.88-7.89,12.36-13.48C926.35,418.42,923.79,417.39,922.21,416.78Z"/><path class="cls-3" d="M700.6,293.85a5.72,5.72,0,0,1,3.59,4.72c0,.67-.11,2.07-1.39,2.2s-2.28-1.13-3.52-1.53-3.23.49-4.51-.65a2.33,2.33,0,0,1-.38-2.83,5.66,5.66,0,0,1,6.45-1.85"/><path class="cls-6" d="M911.52,292.39s3.55-40.53,42.39-18.33a53.13,53.13,0,0,0,20.12.69c13.58-2.19,25.15-14.08,29.82-4.16,3.76,8-23.58,22.89-40.23,21.5S911.52,292.39,911.52,292.39Z"/><path class="cls-6" d="M940.72,269.25c12.84,2.21,27.18,3.11,42-6.32,7.83-5,11.39-2.12,12.38-.54,1.34,2.13-.22,4.88-1.91,6.74a40.66,40.66,0,0,1-30.82,13.2"/><path class="cls-6" d="M961,289.19c10.14.8,20.7-2.2,30-8.53,1.7-1.16,3.42-2.46,5.29-2.81a3.89,3.89,0,0,1,4.6,2.68c.84,2.9-1.32,6.05-3.4,8.07-9.52,9.27-24.8,15.94-36.06,13.44"/><path class="cls-3" d="M968.56,288.76a47.05,47.05,0,0,0,12.51-3.93c3.38-1.56,6.65-3.35,10-4.89,2.5-1.13,5.28-2.29,8.06-1.58a.24.24,0,0,0,.13-.47c-2.41-.61-4.83.1-7,1-1.85.77-3.66,1.64-5.45,2.54A91.56,91.56,0,0,1,976,286.37a43.31,43.31,0,0,1-7.61,1.93c-.3,0-.17.51.13.46Z"/><path class="cls-3" d="M962.16,280.94c3.68-.95,7.33-2,10.92-3.25,2.56-.89,5.09-1.87,7.56-3,1.82-.83,3.6-1.75,5.35-2.72,1.42-.79,2.81-1.61,4.22-2.38a34.93,34.93,0,0,1,4.1-1.95l.57-.22c.29-.1.16-.57-.13-.46a32.65,32.65,0,0,0-4.22,1.91c-1.39.74-2.75,1.54-4.12,2.31-1.68.95-3.38,1.85-5.12,2.68-2.37,1.12-4.8,2.1-7.26,3-3.42,1.22-6.9,2.27-10.4,3.2-.53.15-1.06.29-1.6.42a.24.24,0,0,0,.13.47Z"/><path class="cls-6" d="M914.44,281.42c5.69-12.09,19.48-22.22,28-27.12a10.81,10.81,0,0,1,4.52-1.71A4.08,4.08,0,0,1,951,254.7c.59,1.35.13,2.91-.44,4.27a29.22,29.22,0,0,1-17.68,16.23"/><path class="cls-3" d="M929.8,291.61a11.14,11.14,0,0,1,6.31-5.14,12.93,12.93,0,0,1,8.2-.08,10.51,10.51,0,0,1,4,2.42.24.24,0,0,0,.34-.34,11.63,11.63,0,0,0-7.85-3.18,13.3,13.3,0,0,0-8.19,2.45,10.75,10.75,0,0,0-3.21,3.63c-.15.27.26.51.41.24Z"/><path class="cls-6" d="M936.49,265.77c5.58,2.26,16.88,2.56,22.64.8s11-4.71,16.43-7.39a11.72,11.72,0,0,1,5.15-1.61c1.81,0,3.75,1.09,4.14,2.86.42,1.95-1.09,3.76-2.58,5.08a39.07,39.07,0,0,1-33.06,8.88"/><path class="cls-3" d="M958.6,273.83a43.93,43.93,0,0,0,10.18-3.31c3.53-1.56,7-3.36,10.33-5.22,1.72-.95,3.44-1.92,5.16-2.88.27-.15,0-.56-.25-.41-3.15,1.75-6.29,3.54-9.5,5.2a80.77,80.77,0,0,1-10.41,4.65,34.11,34.11,0,0,1-5.63,1.5c-.31.05-.18.52.12.47Z"/><path class="cls-6" d="M615,337s-72.14,11.09-121.17-28.24S466.66,200,478.63,177.15l-44.28-36.73S397,185.3,395.74,252.83c-1.5,78.33,54.45,167,185.61,166Z"/><path class="cls-2" d="M604.49,420.39c-84.21,2.75-126.3-25.24-126.3-25.24,29.84-35.19,32.18-76,32.18-76,46.43,11.9,67.38-5.12,115.71,3.71"/><path class="cls-5" d="M525.9,324.92a126.94,126.94,0,0,1-1.59,16.74,131.22,131.22,0,0,1-3.78,16.49,125.27,125.27,0,0,1-6,15.91,120.08,120.08,0,0,1-8,14.84,108.69,108.69,0,0,1-10.13,13.44c-.46.52-.92,1-1.39,1.54-.28.3.18.76.46.45a108.28,108.28,0,0,0,10.41-13.26,117.38,117.38,0,0,0,8.4-14.86,125.94,125.94,0,0,0,6.23-15.83,129.31,129.31,0,0,0,6-33.41c0-.69.06-1.37.08-2.05a.33.33,0,0,0-.65,0Z"/><path class="cls-7" d="M402.84,276.36c8.68,1.75,16.68,14.4,17.85,28.24.86,10.13-3.63,18.69-8.72,21.55A226.67,226.67,0,0,1,400.21,294c-1.36-4.91-3.25-11.42-3.18-18C398.46,275.52,401.18,276,402.84,276.36Z"/><path class="cls-6" d="M478.63,177.15s18.76-36.1-25.93-38.23a52.92,52.92,0,0,1-17.34-10.21c-10.29-9.13-13.67-25.38-22.94-19.52-7.45,4.72,7.62,32,22.41,39.74S478.63,177.15,478.63,177.15Z"/><path class="cls-6" d="M466.41,142c-12-5-24.6-12-32-27.88-3.93-8.4-8.48-7.9-10.16-7.1-2.28,1.07-2.43,4.24-2,6.72a40.65,40.65,0,0,0,18.93,27.68"/><path class="cls-6" d="M438.61,147.9c-9-4.77-16.28-13-20.71-23.29-.81-1.89-1.57-3.91-3-5.22a3.9,3.9,0,0,0-5.32-.2c-2.27,2-2.13,5.81-1.46,8.63,3.06,12.94,12.37,26.77,23.21,30.7"/><path class="cls-3" d="M432.8,143.13a48.24,48.24,0,0,1-9-10.89c-2.1-3.34-4-6.84-6.26-10.06a10.79,10.79,0,0,0-5.22-4.38c-.29-.1-.42.37-.12.46a10,10,0,0,1,4.73,3.9c1.16,1.58,2.21,3.26,3.22,4.94a107.73,107.73,0,0,0,6.65,10.35,42.3,42.3,0,0,0,5.64,6c.23.21.57-.13.34-.34Z"/><path class="cls-3" d="M442.4,140c-2.58-2.76-5.09-5.6-7.44-8.56-1.69-2.13-3.3-4.33-4.78-6.61q-1.62-2.52-3-5.16c-.76-1.41-1.49-2.84-2.27-4.24a35.13,35.13,0,0,0-2.42-3.86l-.37-.48c-.18-.25-.6,0-.41.24a32.78,32.78,0,0,1,2.52,3.86c.78,1.38,1.5,2.79,2.25,4.19.91,1.71,1.88,3.4,2.91,5.05,1.4,2.21,2.93,4.34,4.53,6.41,2.23,2.87,4.6,5.62,7.05,8.29l1.13,1.21c.21.23.55-.11.34-.34Z"/><path class="cls-6" d="M482.05,166.32c1.69-13.26-4.5-29.2-9-37.89a10.64,10.64,0,0,0-2.9-3.87,4.07,4.07,0,0,0-4.56-.4c-1.22.82-1.67,2.39-1.91,3.84a29.2,29.2,0,0,0,6.2,23.18"/><path class="cls-3" d="M464.1,166.68a11.69,11.69,0,0,0-2.66-8,13.34,13.34,0,0,0-7.21-4.65,10.94,10.94,0,0,0-4.83-.08c-.3.06-.18.53.13.46,5.54-1.18,11.36,2.59,13.38,7.72a10.55,10.55,0,0,1,.71,4.58c0,.31.46.31.48,0Z"/><path class="cls-6" d="M471.85,141.28c-5.92-1.09-15.62-6.9-19.53-11.47s-6.8-9.91-9.9-15.06a11.61,11.61,0,0,0-3.48-4.12c-1.53-1-3.75-1.09-5,.19s-1.1,3.75-.55,5.67a39.09,39.09,0,0,0,23.13,25.24"/><path class="cls-3" d="M449.21,135.88a43.4,43.4,0,0,1-6.82-8.28c-2.12-3.19-4-6.51-5.85-9.87-.93-1.71-1.85-3.43-2.78-5.15a.24.24,0,0,0-.42.24c1.73,3.19,3.43,6.4,5.25,9.54a81.13,81.13,0,0,0,6.33,9.56,35.77,35.77,0,0,0,3.95,4.3c.23.21.57-.13.34-.34Z"/><text class="cls-8" transform="translate(285.97 1035.4)">404</text><path class="cls-9" d="M1343.5,360.82c-2.35,57.28-30.43,97.12,19.32,122.61,25.82,13.22,70.72-22.44,90.64-68.62,9-21,77.18-19.27,29.65,66.08-42,75.42-142.49,83.29-168,74C1282.5,543,1346.44,289.22,1343.5,360.82Z"/><path class="cls-7" d="M1306.77,547.21c6.1-6.59,21.41-6.71,34.19-.28,9.35,4.71,14.74,11.62,14.58,17.58a129.14,129.14,0,0,1-34.66-5.53,66.25,66.25,0,0,1-16.37-7.62A9.21,9.21,0,0,1,1306.77,547.21Z"/><path class="cls-6" d="M1501.37,367.49s-10.21-22.2,19.89-27.86c0,0-3.91-8.2-16.5-10.22-10.1-1.62-11-12.77,2.22-12.23s29.81,11.48,32.73,27-3,34.75-12.53,53.63S1501.37,367.49,1501.37,367.49Z"/><path class="cls-3" d="M1506.32,348.39c3.47,1.38,6.91,3.63,8.75,7,.94,1.72,1.68,4.07.79,5.94a5.4,5.4,0,0,1-4.35,2.83c-2.44.23-4.76-1-6.64-2.41-.24-.19-.48.23-.24.41a10.58,10.58,0,0,0,6.27,2.5,6.15,6.15,0,0,0,5-2.39c1.31-1.8.93-4.17.12-6.1a13,13,0,0,0-3.6-4.75,21.18,21.18,0,0,0-5.93-3.47c-.29-.12-.42.35-.13.46Z"/><path class="cls-3" d="M1509.73,349.94a19.2,19.2,0,0,1,6.06-7.45,19,19,0,0,1,9.62-3.57,19.35,19.35,0,0,1,6,.47c.3.08.43-.39.13-.46a19.66,19.66,0,0,0-10.91.49,19.48,19.48,0,0,0-11.34,10.28c-.12.27.29.52.42.24Z"/><path class="cls-3" d="M1515.49,355a20.85,20.85,0,0,1,13.5-6.73,20.5,20.5,0,0,1,4.36.06c.3,0,.3-.44,0-.48a21.38,21.38,0,0,0-14.9,3.86,20.54,20.54,0,0,0-3.3,2.95c-.2.23.14.57.34.34Z"/><path class="cls-3" d="M1514,363.85a3.46,3.46,0,0,0,3.68,5.33,6.69,6.69,0,0,0,3.25-2.45,17.07,17.07,0,0,1,3.35-3.17,14,14,0,0,1,5-2.11c.31-.06.18-.53-.12-.46a14.4,14.4,0,0,0-7.51,4.23,19.37,19.37,0,0,1-2.76,2.89,3.19,3.19,0,0,1-3.68.17,3,3,0,0,1-.75-4.18c.18-.26-.24-.5-.41-.25Z"/><path class="cls-9" d="M1480.35,237.1s28.31,106.86-39.9,67.54l.87,66.72-50.86-53,20.76-64.41S1406.25,191.3,1480.35,237.1Z"/><path class="cls-3" d="M1471.31,271.38c-.36,1.66-.06,3.13.67,3.29s1.63-1,2-2.7.07-3.13-.67-3.3S1471.68,269.72,1471.31,271.38Z"/><path class="cls-3" d="M1471.85,292.51a5.53,5.53,0,0,1,5.67,3.32c.13.31.63.17.5-.14a6,6,0,0,0-6.17-3.7c-.33,0-.33.56,0,.52Z"/><path class="cls-3" d="M1473,260.15c.55,1,2.43,1,4.2.06s2.75-2.58,2.19-3.58-2.44-1-4.2-.07S1472.46,259.14,1473,260.15Z"/><polygon class="cls-6" points="1484.05 257.4 1485.64 260.45 1497.07 283.22 1485.36 285.87 1484.05 257.4"/><polygon class="cls-7" points="1484.05 257.4 1485.64 260.45 1497.07 283.22 1485.36 285.87 1484.05 257.4"/><polygon class="cls-3" points="1450.07 309.51 1440.24 304.33 1440.85 327.06 1450.07 309.51"/><path class="cls-3" d="M1430.1,267.31c8.22,4.9,20.52-.32,22.7-9.64.61-2.6.56-5.42,1.88-7.73,1.91-3.33,6.12-4.62,10-4.66s7.65.87,11.48.64c7.15-.43,14.16-5.71,15.18-12.81s-5.5-14.68-12.58-13.57c-2,.33-3.93,1.26-6,1.6-9.31,1.56-15.62-8.84-23.5-14-11.14-7.36-28.31-2.61-34.08,9.43-1.34,2.8-2.13,5.86-3.73,8.52-3.24,5.36-9.26,8.27-14,12.34s-8.48,11.1-5.18,16.43c1.35,2.18,3.71,3.72,4.57,6.14,1.46,4.1-2,8.18-2.9,12.44-1.31,6.1,3.25,12.5,9.21,14.34s12.66-.26,17.43-4.28,7.84-9.72,10-15.59"/><path class="cls-9" d="M1418.79,263.87a12.79,12.79,0,1,1,8.57,15.93A12.8,12.8,0,0,1,1418.79,263.87Z"/><path class="cls-3" d="M1429.78,261.92a7.28,7.28,0,0,1,6,5.88,6.26,6.26,0,0,1,0,2.55c-.07.33.43.46.51.14a7.82,7.82,0,0,0-3.89-8.26,7,7,0,0,0-2.62-.83c-.33,0-.33.48,0,.52Z"/><path class="cls-4" d="M1448.85,468.85l-36.49,97.78s-127,32.1-176.95-39.41c0,0-12.05-217.73,143.38-218.91C1489.84,307.47,1489,364,1448.85,468.85Z"/><path class="cls-3" d="M1483.58,1148.77l-36.12-2.19-2.08,55.66,16.44-.41-.9-6.28,21.54,7.18,87,.9s-19.22-17-46.48-23.58a60.83,60.83,0,0,1-39.43-31.28Z"/><path class="cls-3" d="M1280.86,1145.47l-29.63-2.23-9.48,57,16.83-.42,2.76-6.43,25.72,7.35,81.77.91s-19.85-17.58-48-24.22c-17.24-4.08-31.63-15.9-39.82-31.61Z"/><path class="cls-2" d="M1413.77,562.37s-101.92,6.76-178.5-37.33c0,0-30.17,71.94-4.64,171.73S1289.19,972,1235.82,1153c0,0,40.41,21.27,76.57,8.51,0,0,80.68-193.19,76-318.51,0,0,65,113.71,37.13,313.28,0,0,41.77,16.25,78.9,2.33,0,0,27.85-92.83,30.17-192.61s-20.89-211.18-55.7-283.12S1422.31,583.93,1413.77,562.37Z"/><path class="cls-3" d="M1388.13,845.82c-1.85-37.84-49.34-76.57-69.64-100.93-24.26-29.1-37.74-63.61-38-101.5,0,0-12.76,53.38,31.33,143.88,35.92,73.73,62.66,171.72,41.77,253C1353.62,1040.22,1392.47,934.54,1388.13,845.82Z"/><path class="cls-5" d="M1385.93,600.66c-5.32.77-10.68,1.27-16,1.53s-10.66.25-16,0-10.73-.75-16.05-1.51-10.57-1.76-15.78-3-10.35-2.75-15.42-4.49l-1.85-.65c-.4-.14-.57.5-.18.64q7.61,2.7,15.45,4.68t15.89,3.2q8,1.22,16,1.69t16.14.17q8.07-.28,16.08-1.35l1.95-.27c.42-.07.24-.7-.17-.64Z"/><path class="cls-5" d="M1383.7,616.39a99.49,99.49,0,0,1-15.13,2.79,121.81,121.81,0,0,1-16,.63,136.88,136.88,0,0,1-16.17-1.38,138.85,138.85,0,0,1-15.78-3.25,122.49,122.49,0,0,1-14.69-4.95l-1.77-.75c-.38-.17-.72.4-.33.57a120.34,120.34,0,0,0,14.65,5.22,138.17,138.17,0,0,0,32,5.13,122.91,122.91,0,0,0,16.17-.38,101.3,101.3,0,0,0,15.38-2.53c.6-.15,1.21-.3,1.82-.47a.33.33,0,0,0-.18-.63Z"/><path class="cls-5" d="M1270.08,584.15a69.44,69.44,0,0,1-17.21-2.34,70.48,70.48,0,0,1-16.12-6.52,69.34,69.34,0,0,1-8.21-5.37c-.34-.25-.67.32-.33.57a69.87,69.87,0,0,0,15.19,8.77,70.72,70.72,0,0,0,16.81,4.75,69.38,69.38,0,0,0,9.87.8.33.33,0,0,0,0-.66Z"/><path class="cls-5" d="M1256.23,599a53.24,53.24,0,0,1-13-2.56,54.68,54.68,0,0,1-12-5.63,53.82,53.82,0,0,1-6.06-4.44c-.32-.27-.79.19-.47.47A54.17,54.17,0,0,0,1236,594.2a55,55,0,0,0,12.73,4.41,53.36,53.36,0,0,0,7.55,1c.42,0,.42-.63,0-.66Z"/><path class="cls-5" d="M1404.41,564.37a166,166,0,0,0,10.36,56.86c6.44,17.6,15.3,34.19,24.22,50.63,10,18.43,20,36.85,28.17,56.19a383.4,383.4,0,0,1,15.55,45.21,634.29,634.29,0,0,1,19,99.18,776.69,776.69,0,0,1,4.12,125.37,786.43,786.43,0,0,1-20.31,144.61q-2.17,9.22-4.59,18.38a.33.33,0,0,0,.63.17A789.39,789.39,0,0,0,1504,887.39a668.4,668.4,0,0,0-17.31-102c-3.4-13.3-7.27-26.49-11.84-39.43-7.09-20.06-16.34-39.2-26.34-58-18.4-34.48-38.9-68.62-42.69-108.39-.48-5.06-.69-10.14-.7-15.23a.33.33,0,0,0-.66,0Z"/><path class="cls-5" d="M1427.62,593.57a39.38,39.38,0,0,1-1.33,12.69,28.58,28.58,0,0,1-5.69,11.24,19.06,19.06,0,0,1-5.26,4.28.33.33,0,0,0,.33.57,21.64,21.64,0,0,0,8.52-9,35.79,35.79,0,0,0,3.84-12.57,39.91,39.91,0,0,0,.25-7.25c0-.42-.68-.42-.66,0Z"/><path class="cls-5" d="M1435.52,609.69a59.26,59.26,0,0,1-3,12.26,30.62,30.62,0,0,1-6.07,10.08,29.36,29.36,0,0,1-5.42,4.59c-.35.24,0,.81.33.57a29.75,29.75,0,0,0,8.73-8.83,38.28,38.28,0,0,0,4.62-11.25c.6-2.39,1-4.81,1.41-7.24.06-.42-.57-.6-.64-.18Z"/><path class="cls-5" d="M1283.35,577.1q-1.65,8.08-2.71,16.28c-.71,5.42-1.22,10.88-1.54,16.34-.18,3.1-.29,6.2-.35,9.3a.33.33,0,0,0,.66,0q.15-8.21.87-16.39t2-16.26c.49-3,1-6.07,1.66-9.09.09-.42-.55-.6-.63-.18Z"/><path class="cls-5" d="M1291.19,548.35q-2,5.91-3.74,11.91c-.33,1.14-.64,2.28-1,3.43a.33.33,0,0,0,.64.17q1.6-6,3.55-12c.37-1.12.75-2.25,1.14-3.37.14-.4-.5-.57-.64-.17Z"/><path class="cls-9" d="M1434.73,320.83s62.36,6.68,94.15,70.9c25.42,51.38,19.92,99.82,75.79,98.3,29-.79,51.28-53.64,46.59-103.71-2.14-22.76,69.34-38.76,56,58-15.38,111.78-83.33,127.18-110.2,131.28-34.27,5.24-110-21.72-130.76-128.79C1443,326.64,1434.73,320.83,1434.73,320.83Z"/><path class="cls-4" d="M1562.4,471.27c-10.08-18.61-19.89-52-33.52-79.54-31.79-64.22-89.8-73-89.8-73s-57.45-11.1,21.88,137.41c12.29,23,18.43,37.34,28.36,54.44,0,0,17.81-3.61,39.4-14.7C1547.09,486.41,1562.4,471.27,1562.4,471.27Z"/><path class="cls-9" d="M1647,438.24c5.69-28.09,3.51-50,4-63.44-.24-22.88,10.76-18.57,13-11.1a6.13,6.13,0,0,1-.15,2.25l.22,0c.27-6.72,3-10.31,7-10.18,2.88.09,5,2,6.53,6,1.4-3.37,3.63-5.54,6.24-5.46s5.13,2.55,6.7,6.21c1.26-2.93,3.25-4.92,5.55-4.74,12.09.94,15.49,60.12,10.15,89.64"/><path class="cls-5" d="M1553.09,453.76c-3.87,3.35-7.91,6.5-12.08,9.46s-8.72,5.85-13.26,8.47-9.42,5.15-14.29,7.4c-5,2.33-10.17,4.43-15.38,6.3s-10.71,3.6-16.17,5c-.69.19-1.39.37-2.08.54a.32.32,0,0,0,.17.61q8.3-2.11,16.39-4.92,7.86-2.75,15.47-6.16,7.44-3.35,14.58-7.35,6.9-3.87,13.44-8.38,6.33-4.38,12.22-9.34l1.44-1.22c.3-.27-.14-.71-.45-.45Z"/><path class="cls-7" d="M1579.33,570.89c2.75-8.54,16.58-15.1,30.89-14.65,10.46.33,18.26,4.33,20.62,9.79a128.44,128.44,0,0,1-33.76,9.59,65.89,65.89,0,0,1-18,0A9.14,9.14,0,0,1,1579.33,570.89Z"/><polygon class="cls-3" points="1457.77 447.62 1443.74 425.06 1431.33 514.09 1457.77 447.62"/><path class="cls-10" d="M1851.15,284.31a13.49,13.49,0,1,0-11.21,15.43A13.47,13.47,0,0,0,1851.15,284.31Z"/><circle class="cls-9" cx="1160.13" cy="276.8" r="60.22" transform="translate(167.35 937.79) rotate(-47.08)"/><path class="cls-11" d="M1051.11,140.56a22.68,22.68,0,1,0,11.3,30A22.67,22.67,0,0,0,1051.11,140.56Z"/><path class="cls-9" d="M1808.83,503.54c-9.58-4.34-20.42-1.05-24.23,7.34s.88,18.71,10.46,23,20.43,1.06,24.23-7.33S1818.41,507.88,1808.83,503.54Z"/><path class="cls-4" d="M1702.85,211.51a28,28,0,1,0,24.94,30.76A28,28,0,0,0,1702.85,211.51Z"/><path class="cls-2" d="M1162.78,1012.45a28,28,0,1,0,24.94,30.75A28,28,0,0,0,1162.78,1012.45Z"/><path class="cls-4" d="M355.45,436.4a56.95,56.95,0,1,0-33.35,73.31A56.94,56.94,0,0,0,355.45,436.4Z"/><path class="cls-2" d="M1677.1,995a21.06,21.06,0,1,0,29.31-5.32A21.05,21.05,0,0,0,1677.1,995Z"/><path class="cls-10" d="M205,600.76a16.69,16.69,0,1,0-9.78,21.49A16.69,16.69,0,0,0,205,600.76Z"/><path class="cls-12" d="M941.71,32H796.83a44.47,44.47,0,0,0-44.48,44.48v2.74a44.46,44.46,0,0,0,25.94,40.4l-5.21,30,39.84-25.9H941.71A44.48,44.48,0,0,0,986.2,79.23V76.49A44.48,44.48,0,0,0,941.71,32Z"/><path class="cls-11" d="M829.89,84.62a18,18,0,0,1,1.75-4.21q1-1.71,2.67-3.94c.81-1.1,1.44-2,1.9-2.72a10.7,10.7,0,0,0,1.14-2.38,8.58,8.58,0,0,0,.45-2.81v0a5.72,5.72,0,0,0-1.34-4.06A4.85,4.85,0,0,0,832.72,63,4.41,4.41,0,0,0,829,64.82a8.39,8.39,0,0,0-1.37,5.06v0h-6.23v0a16.45,16.45,0,0,1,1.5-6.78,10,10,0,0,1,3.88-4.28,11.49,11.49,0,0,1,5.93-1.48,13.06,13.06,0,0,1,6.13,1.33,9,9,0,0,1,3.9,3.83A12.79,12.79,0,0,1,844,68.56v0a12.42,12.42,0,0,1-.56,3.85,13.26,13.26,0,0,1-1.35,3c-.53.84-1.26,1.86-2.18,3.07a41.53,41.53,0,0,0-2.44,3.41,14.83,14.83,0,0,0-1.56,3.58,16.74,16.74,0,0,0-.63,4.83h-6.14A20.58,20.58,0,0,1,829.89,84.62ZM829,95.09h6.44v6.43H829Z"/><path class="cls-11" d="M862.64,84.62a18,18,0,0,1,1.74-4.21c.68-1.14,1.58-2.45,2.68-3.94.8-1.1,1.43-2,1.89-2.72a10.3,10.3,0,0,0,1.15-2.38,8.58,8.58,0,0,0,.45-2.81v0a5.76,5.76,0,0,0-1.34-4.06A4.85,4.85,0,0,0,865.47,63a4.42,4.42,0,0,0-3.78,1.79,8.46,8.46,0,0,0-1.37,5.06v0H854.1v0a16.45,16.45,0,0,1,1.5-6.78,9.92,9.92,0,0,1,3.88-4.28,11.49,11.49,0,0,1,5.93-1.48,13.08,13.08,0,0,1,6.13,1.33,9,9,0,0,1,3.9,3.83,12.79,12.79,0,0,1,1.33,6.06v0a12.43,12.43,0,0,1-.55,3.85,12.84,12.84,0,0,1-1.36,3c-.53.84-1.25,1.86-2.18,3.07a41.15,41.15,0,0,0-2.43,3.41,14.84,14.84,0,0,0-1.57,3.58,16.74,16.74,0,0,0-.63,4.83h-6.13A20.58,20.58,0,0,1,862.64,84.62Zm-.87,10.47h6.43v6.43h-6.43Z"/><path class="cls-11" d="M895.39,84.62a18,18,0,0,1,1.74-4.21,47.39,47.39,0,0,1,2.68-3.94c.8-1.1,1.43-2,1.89-2.72a10.7,10.7,0,0,0,1.14-2.38,8.58,8.58,0,0,0,.45-2.81v0A5.76,5.76,0,0,0,902,64.47,4.87,4.87,0,0,0,898.21,63a4.41,4.41,0,0,0-3.77,1.79,8.46,8.46,0,0,0-1.37,5.06v0h-6.23v0a16.29,16.29,0,0,1,1.51-6.78,9.86,9.86,0,0,1,3.88-4.28,11.46,11.46,0,0,1,5.92-1.48,13.13,13.13,0,0,1,6.14,1.33,9,9,0,0,1,3.89,3.83,12.79,12.79,0,0,1,1.34,6.06v0a12.42,12.42,0,0,1-.56,3.85,13.26,13.26,0,0,1-1.35,3c-.53.84-1.26,1.86-2.18,3.07s-1.81,2.42-2.44,3.41a14.83,14.83,0,0,0-1.56,3.58,16.74,16.74,0,0,0-.63,4.83h-6.14A20.19,20.19,0,0,1,895.39,84.62Zm-.88,10.47H901v6.43h-6.44Z"/></g></g></svg>